<mxfile host="app.diagrams.net" agent="Mozilla/5.0 (Windows NT 10.0; Win64; x64) AppleWebKit/537.36 (KHTML, like Gecko) Chrome/141.0.0.0 Safari/537.36" version="28.2.8">
  <diagram name="Page-1" id="RnsVzHbDTSLkHd1pyYcR">
    <mxGraphModel dx="1892" dy="561" grid="1" gridSize="10" guides="1" tooltips="1" connect="1" arrows="1" fold="1" page="1" pageScale="1" pageWidth="850" pageHeight="1100" math="0" shadow="0">
      <root>
        <mxCell id="0" />
        <mxCell id="1" parent="0" />
        <mxCell id="muZX9E4gW_NY2--OSgxJ-1" value="&lt;b&gt;AWS Account&lt;/b&gt;" style="points=[[0,0],[0.25,0],[0.5,0],[0.75,0],[1,0],[1,0.25],[1,0.5],[1,0.75],[1,1],[0.75,1],[0.5,1],[0.25,1],[0,1],[0,0.75],[0,0.5],[0,0.25]];outlineConnect=0;gradientColor=none;html=1;whiteSpace=wrap;fontSize=12;fontStyle=0;container=1;pointerEvents=0;collapsible=0;recursiveResize=0;shape=mxgraph.aws4.group;grIcon=mxgraph.aws4.group_account;strokeColor=#CD2264;fillColor=none;verticalAlign=top;align=left;spacingLeft=30;fontColor=#CD2264;dashed=0;strokeWidth=2;" parent="1" vertex="1">
          <mxGeometry x="80" y="40" width="1070" height="480" as="geometry" />
        </mxCell>
        <mxCell id="muZX9E4gW_NY2--OSgxJ-3" value="" style="sketch=0;outlineConnect=0;fontColor=#232F3E;gradientColor=none;fillColor=#8C4FFF;strokeColor=none;dashed=0;verticalLabelPosition=bottom;verticalAlign=top;align=center;html=1;fontSize=12;fontStyle=0;aspect=fixed;pointerEvents=1;shape=mxgraph.aws4.internet_gateway;" parent="muZX9E4gW_NY2--OSgxJ-1" vertex="1">
          <mxGeometry x="-20" y="201" width="78" height="78" as="geometry" />
        </mxCell>
        <mxCell id="muZX9E4gW_NY2--OSgxJ-4" value="&lt;b&gt;IGW&lt;/b&gt;" style="text;html=1;whiteSpace=wrap;strokeColor=none;fillColor=none;align=center;verticalAlign=middle;rounded=0;" parent="muZX9E4gW_NY2--OSgxJ-1" vertex="1">
          <mxGeometry x="-11" y="280" width="60" height="30" as="geometry" />
        </mxCell>
        <mxCell id="muZX9E4gW_NY2--OSgxJ-12" value="" style="outlineConnect=0;dashed=0;verticalLabelPosition=bottom;verticalAlign=top;align=center;html=1;shape=mxgraph.aws3.route_table;fillColor=#F58536;gradientColor=none;" parent="muZX9E4gW_NY2--OSgxJ-1" vertex="1">
          <mxGeometry x="130" width="75" height="69" as="geometry" />
        </mxCell>
        <mxCell id="muZX9E4gW_NY2--OSgxJ-13" value="" style="outlineConnect=0;dashed=0;verticalLabelPosition=bottom;verticalAlign=top;align=center;html=1;shape=mxgraph.aws3.route_table;fillColor=#f8cecc;strokeColor=#b85450;gradientColor=#ea6b66;" parent="muZX9E4gW_NY2--OSgxJ-1" vertex="1">
          <mxGeometry x="340" width="75" height="69" as="geometry" />
        </mxCell>
        <mxCell id="muZX9E4gW_NY2--OSgxJ-14" value="" style="outlineConnect=0;dashed=0;verticalLabelPosition=bottom;verticalAlign=top;align=center;html=1;shape=mxgraph.aws3.route_table;fillColor=#dae8fc;strokeColor=#6c8ebf;gradientColor=#7ea6e0;" parent="muZX9E4gW_NY2--OSgxJ-1" vertex="1">
          <mxGeometry x="530" width="75" height="69" as="geometry" />
        </mxCell>
        <mxCell id="muZX9E4gW_NY2--OSgxJ-18" value="VPC" style="points=[[0,0],[0.25,0],[0.5,0],[0.75,0],[1,0],[1,0.25],[1,0.5],[1,0.75],[1,1],[0.75,1],[0.5,1],[0.25,1],[0,1],[0,0.75],[0,0.5],[0,0.25]];outlineConnect=0;gradientColor=none;html=1;whiteSpace=wrap;fontSize=12;fontStyle=0;container=1;pointerEvents=0;collapsible=0;recursiveResize=0;shape=mxgraph.aws4.group;grIcon=mxgraph.aws4.group_vpc2;strokeColor=#FF3333;fillColor=none;verticalAlign=top;align=left;spacingLeft=30;fontColor=#AAB7B8;dashed=0;" parent="muZX9E4gW_NY2--OSgxJ-1" vertex="1">
          <mxGeometry x="830" y="40" width="210" height="400" as="geometry" />
        </mxCell>
        <mxCell id="muZX9E4gW_NY2--OSgxJ-19" value="" style="sketch=0;points=[[0,0,0],[0.25,0,0],[0.5,0,0],[0.75,0,0],[1,0,0],[0,1,0],[0.25,1,0],[0.5,1,0],[0.75,1,0],[1,1,0],[0,0.25,0],[0,0.5,0],[0,0.75,0],[1,0.25,0],[1,0.5,0],[1,0.75,0]];outlineConnect=0;fontColor=#232F3E;fillColor=#ED7100;strokeColor=#ffffff;dashed=0;verticalLabelPosition=bottom;verticalAlign=top;align=center;html=1;fontSize=12;fontStyle=0;aspect=fixed;shape=mxgraph.aws4.resourceIcon;resIcon=mxgraph.aws4.ec2;" parent="muZX9E4gW_NY2--OSgxJ-18" vertex="1">
          <mxGeometry x="90" y="140" width="48.3" height="48.3" as="geometry" />
        </mxCell>
        <mxCell id="muZX9E4gW_NY2--OSgxJ-24" value="" style="outlineConnect=0;dashed=0;verticalLabelPosition=bottom;verticalAlign=top;align=center;html=1;shape=mxgraph.aws3.vpc_peering;fillColor=#F58534;gradientColor=none;" parent="muZX9E4gW_NY2--OSgxJ-1" vertex="1">
          <mxGeometry x="700" y="201" width="50" height="40" as="geometry" />
        </mxCell>
        <mxCell id="muZX9E4gW_NY2--OSgxJ-26" style="edgeStyle=orthogonalEdgeStyle;rounded=0;orthogonalLoop=1;jettySize=auto;html=1;entryX=1;entryY=0.5;entryDx=0;entryDy=0;entryPerimeter=0;" parent="muZX9E4gW_NY2--OSgxJ-1" source="muZX9E4gW_NY2--OSgxJ-18" target="muZX9E4gW_NY2--OSgxJ-24" edge="1">
          <mxGeometry relative="1" as="geometry" />
        </mxCell>
        <mxCell id="muZX9E4gW_NY2--OSgxJ-2" value="&lt;b&gt;VPC&lt;/b&gt;" style="points=[[0,0],[0.25,0],[0.5,0],[0.75,0],[1,0],[1,0.25],[1,0.5],[1,0.75],[1,1],[0.75,1],[0.5,1],[0.25,1],[0,1],[0,0.75],[0,0.5],[0,0.25]];outlineConnect=0;gradientColor=none;html=1;whiteSpace=wrap;fontSize=12;fontStyle=0;container=1;pointerEvents=0;collapsible=0;recursiveResize=0;shape=mxgraph.aws4.group;grIcon=mxgraph.aws4.group_vpc2;strokeColor=#8C4FFF;fillColor=none;verticalAlign=top;align=left;spacingLeft=30;fontColor=#AAB7B8;dashed=0;" parent="1" vertex="1">
          <mxGeometry x="120" y="80" width="620" height="400" as="geometry" />
        </mxCell>
        <mxCell id="muZX9E4gW_NY2--OSgxJ-10" value="" style="rounded=1;arcSize=10;dashed=1;strokeColor=#F59D56;fillColor=none;gradientColor=none;dashPattern=8 4;strokeWidth=2;glass=1;" parent="muZX9E4gW_NY2--OSgxJ-2" vertex="1">
          <mxGeometry x="35.25" y="40" width="569.5" height="100" as="geometry" />
        </mxCell>
        <mxCell id="muZX9E4gW_NY2--OSgxJ-5" value="&lt;b&gt;Public subnet&lt;/b&gt;" style="points=[[0,0],[0.25,0],[0.5,0],[0.75,0],[1,0],[1,0.25],[1,0.5],[1,0.75],[1,1],[0.75,1],[0.5,1],[0.25,1],[0,1],[0,0.75],[0,0.5],[0,0.25]];outlineConnect=0;html=1;whiteSpace=wrap;fontSize=12;fontStyle=0;container=1;pointerEvents=0;collapsible=0;recursiveResize=0;shape=mxgraph.aws4.group;grIcon=mxgraph.aws4.group_security_group;grStroke=0;strokeColor=#82b366;fillColor=#d5e8d4;verticalAlign=top;align=left;spacingLeft=30;dashed=0;" parent="muZX9E4gW_NY2--OSgxJ-2" vertex="1">
          <mxGeometry x="50" y="20" width="160" height="340" as="geometry" />
        </mxCell>
        <mxCell id="C0m10eazvGdcd8NFWPi3-2" value="" style="points=[];aspect=fixed;html=1;align=center;shadow=0;dashed=0;fillColor=#FF6A00;strokeColor=none;shape=mxgraph.alibaba_cloud.bastionhost;" vertex="1" parent="muZX9E4gW_NY2--OSgxJ-5">
          <mxGeometry x="50" y="120" width="50.53" height="40" as="geometry" />
        </mxCell>
        <mxCell id="C0m10eazvGdcd8NFWPi3-4" value="&lt;b&gt;Bastion&lt;/b&gt;" style="text;html=1;whiteSpace=wrap;strokeColor=none;fillColor=none;align=center;verticalAlign=middle;rounded=0;" vertex="1" parent="muZX9E4gW_NY2--OSgxJ-5">
          <mxGeometry x="50" y="155" width="60" height="30" as="geometry" />
        </mxCell>
        <mxCell id="muZX9E4gW_NY2--OSgxJ-6" value="&lt;b&gt;Private subnet&lt;/b&gt;" style="points=[[0,0],[0.25,0],[0.5,0],[0.75,0],[1,0],[1,0.25],[1,0.5],[1,0.75],[1,1],[0.75,1],[0.5,1],[0.25,1],[0,1],[0,0.75],[0,0.5],[0,0.25]];outlineConnect=0;html=1;whiteSpace=wrap;fontSize=12;fontStyle=0;container=1;pointerEvents=0;collapsible=0;recursiveResize=0;shape=mxgraph.aws4.group;grIcon=mxgraph.aws4.group_security_group;grStroke=0;strokeColor=#9673a6;fillColor=#e1d5e7;verticalAlign=top;align=left;spacingLeft=30;dashed=0;" parent="muZX9E4gW_NY2--OSgxJ-2" vertex="1">
          <mxGeometry x="270" y="20" width="140" height="340" as="geometry" />
        </mxCell>
        <mxCell id="muZX9E4gW_NY2--OSgxJ-11" value="" style="rounded=1;arcSize=10;dashed=1;strokeColor=#F59D56;fillColor=none;gradientColor=none;dashPattern=8 4;strokeWidth=2;glass=1;" parent="muZX9E4gW_NY2--OSgxJ-6" vertex="1">
          <mxGeometry x="-234.75" y="190" width="569.5" height="100" as="geometry" />
        </mxCell>
        <mxCell id="C0m10eazvGdcd8NFWPi3-1" value="" style="sketch=0;points=[[0,0,0],[0.25,0,0],[0.5,0,0],[0.75,0,0],[1,0,0],[0,1,0],[0.25,1,0],[0.5,1,0],[0.75,1,0],[1,1,0],[0,0.25,0],[0,0.5,0],[0,0.75,0],[1,0.25,0],[1,0.5,0],[1,0.75,0]];outlineConnect=0;fontColor=#232F3E;fillColor=#ED7100;strokeColor=#ffffff;dashed=0;verticalLabelPosition=bottom;verticalAlign=top;align=center;html=1;fontSize=12;fontStyle=0;aspect=fixed;shape=mxgraph.aws4.resourceIcon;resIcon=mxgraph.aws4.ec2;" vertex="1" parent="muZX9E4gW_NY2--OSgxJ-6">
          <mxGeometry x="50.00000000000002" y="115.85" width="48.3" height="48.3" as="geometry" />
        </mxCell>
        <mxCell id="muZX9E4gW_NY2--OSgxJ-7" value="&lt;b&gt;Database subnet&lt;/b&gt;" style="points=[[0,0],[0.25,0],[0.5,0],[0.75,0],[1,0],[1,0.25],[1,0.5],[1,0.75],[1,1],[0.75,1],[0.5,1],[0.25,1],[0,1],[0,0.75],[0,0.5],[0,0.25]];outlineConnect=0;html=1;whiteSpace=wrap;fontSize=12;fontStyle=0;container=1;pointerEvents=0;collapsible=0;recursiveResize=0;shape=mxgraph.aws4.group;grIcon=mxgraph.aws4.group_security_group;grStroke=0;strokeColor=#b85450;fillColor=#f8cecc;verticalAlign=top;align=left;spacingLeft=30;dashed=0;" parent="muZX9E4gW_NY2--OSgxJ-2" vertex="1">
          <mxGeometry x="450" y="20" width="130" height="340" as="geometry" />
        </mxCell>
        <mxCell id="muZX9E4gW_NY2--OSgxJ-15" value="" style="points=[];aspect=fixed;html=1;align=center;shadow=0;dashed=0;fillColor=#FF6A00;strokeColor=none;shape=mxgraph.alibaba_cloud.nat_gateway;" parent="muZX9E4gW_NY2--OSgxJ-2" vertex="1">
          <mxGeometry x="100" y="80" width="51.6" height="41.699999999999996" as="geometry" />
        </mxCell>
        <mxCell id="muZX9E4gW_NY2--OSgxJ-16" value="" style="points=[];aspect=fixed;html=1;align=center;shadow=0;dashed=0;fillColor=#dae8fc;strokeColor=#6c8ebf;shape=mxgraph.alibaba_cloud.eip_elastic_ip_address;gradientColor=#7ea6e0;" parent="muZX9E4gW_NY2--OSgxJ-2" vertex="1">
          <mxGeometry x="140" y="80" width="47.400000000000006" height="46.5" as="geometry" />
        </mxCell>
        <mxCell id="C0m10eazvGdcd8NFWPi3-3" style="edgeStyle=orthogonalEdgeStyle;rounded=0;orthogonalLoop=1;jettySize=auto;html=1;" edge="1" parent="muZX9E4gW_NY2--OSgxJ-2" source="C0m10eazvGdcd8NFWPi3-2" target="C0m10eazvGdcd8NFWPi3-1">
          <mxGeometry relative="1" as="geometry" />
        </mxCell>
        <mxCell id="muZX9E4gW_NY2--OSgxJ-22" value="&lt;b&gt;ISP&lt;/b&gt;" style="rounded=0;whiteSpace=wrap;html=1;" parent="1" vertex="1">
          <mxGeometry x="-130" y="250" width="120" height="60" as="geometry" />
        </mxCell>
        <mxCell id="muZX9E4gW_NY2--OSgxJ-21" style="edgeStyle=orthogonalEdgeStyle;rounded=0;orthogonalLoop=1;jettySize=auto;html=1;" parent="1" source="muZX9E4gW_NY2--OSgxJ-3" target="muZX9E4gW_NY2--OSgxJ-22" edge="1">
          <mxGeometry relative="1" as="geometry">
            <mxPoint x="-70" y="220" as="targetPoint" />
          </mxGeometry>
        </mxCell>
        <mxCell id="muZX9E4gW_NY2--OSgxJ-23" style="edgeStyle=orthogonalEdgeStyle;rounded=0;orthogonalLoop=1;jettySize=auto;html=1;entryX=0.5;entryY=0;entryDx=0;entryDy=0;entryPerimeter=0;" parent="1" source="muZX9E4gW_NY2--OSgxJ-22" target="muZX9E4gW_NY2--OSgxJ-19" edge="1">
          <mxGeometry relative="1" as="geometry">
            <Array as="points">
              <mxPoint x="-70" y="10" />
              <mxPoint x="964" y="10" />
            </Array>
          </mxGeometry>
        </mxCell>
        <mxCell id="muZX9E4gW_NY2--OSgxJ-25" value="" style="endArrow=classic;html=1;rounded=0;entryX=0;entryY=0.5;entryDx=0;entryDy=0;entryPerimeter=0;" parent="1" source="muZX9E4gW_NY2--OSgxJ-2" target="muZX9E4gW_NY2--OSgxJ-24" edge="1">
          <mxGeometry width="50" height="50" relative="1" as="geometry">
            <mxPoint x="580" y="320" as="sourcePoint" />
            <mxPoint x="630" y="270" as="targetPoint" />
          </mxGeometry>
        </mxCell>
        <mxCell id="C0m10eazvGdcd8NFWPi3-5" value="" style="sketch=0;pointerEvents=1;shadow=0;dashed=0;html=1;strokeColor=none;fillColor=#505050;labelPosition=center;verticalLabelPosition=bottom;verticalAlign=top;outlineConnect=0;align=center;shape=mxgraph.office.users.um_enabled_user;" vertex="1" parent="1">
          <mxGeometry x="-10" y="180" width="58" height="59" as="geometry" />
        </mxCell>
        <mxCell id="C0m10eazvGdcd8NFWPi3-6" style="edgeStyle=orthogonalEdgeStyle;rounded=0;orthogonalLoop=1;jettySize=auto;html=1;entryX=0.301;entryY=0.565;entryDx=0;entryDy=0;entryPerimeter=0;" edge="1" parent="1" source="C0m10eazvGdcd8NFWPi3-5" target="C0m10eazvGdcd8NFWPi3-2">
          <mxGeometry relative="1" as="geometry" />
        </mxCell>
      </root>
    </mxGraphModel>
  </diagram>
</mxfile>
